<svg width="73" height="25" viewBox="0 0 73 25" fill="none" xmlns="http://www.w3.org/2000/svg">
<path d="M6.104 4.736C3.56533 4.736 1.74133 6.38933 0.632 9.696C0.610667 9.76 0.546667 9.792 0.44 9.792C0.333333 9.77067 0.28 9.728 0.28 9.664C0.365333 8.81067 0.461333 7.712 0.568 6.368C0.674667 5.00267 0.728 3.97867 0.728 3.296C0.728 3.18933 0.781333 3.136 0.888 3.136C1.016 3.136 1.08 3.18933 1.08 3.296C1.08 3.76533 1.688 4 2.904 4C4.73867 4.064 6.88267 4.096 9.336 4.096C10.5947 4.096 11.928 4.07467 13.336 4.032L15.512 4C16.3227 4 16.9093 3.94667 17.272 3.84C17.656 3.73333 17.9013 3.52 18.008 3.2C18.0293 3.11467 18.0933 3.072 18.2 3.072C18.328 3.072 18.392 3.11467 18.392 3.2C18.328 3.84 18.2533 4.864 18.168 6.272C18.104 7.68 18.072 8.81067 18.072 9.664C18.072 9.728 18.0187 9.76 17.912 9.76C17.8053 9.76 17.7413 9.728 17.72 9.664C17.4 8.02133 16.8027 6.79467 15.928 5.984C15.0533 5.152 13.976 4.736 12.696 4.736C12.0773 4.736 11.6613 4.87466 11.448 5.152C11.256 5.408 11.16 5.90933 11.16 6.656V21.408C11.16 22.0693 11.224 22.5493 11.352 22.848C11.48 23.1467 11.7253 23.3493 12.088 23.456C12.4507 23.5627 13.0267 23.616 13.816 23.616C13.88 23.616 13.912 23.68 13.912 23.808C13.912 23.936 13.88 24 13.816 24C13.048 24 12.44 23.9893 11.992 23.968L9.336 23.936L6.744 23.968C6.296 23.9893 5.67733 24 4.888 24C4.824 24 4.792 23.936 4.792 23.808C4.792 23.68 4.824 23.616 4.888 23.616C5.656 23.616 6.22133 23.5627 6.584 23.456C6.968 23.3493 7.224 23.1467 7.352 22.848C7.50133 22.528 7.576 22.048 7.576 21.408V6.592C7.576 5.86667 7.48 5.376 7.288 5.12C7.096 4.864 6.70133 4.736 6.104 4.736ZM24.2925 24.384C22.9485 24.384 21.7858 24.1067 20.8045 23.552C19.8232 22.976 19.0765 22.2187 18.5645 21.28C18.0525 20.32 17.7965 19.2853 17.7965 18.176C17.7965 16.9387 18.1058 15.7973 18.7245 14.752C19.3432 13.7067 20.1965 12.8853 21.2845 12.288C22.3938 11.6693 23.6418 11.36 25.0285 11.36C26.3512 11.36 27.3752 11.6587 28.1005 12.256C28.8258 12.8533 29.1885 13.7813 29.1885 15.04C29.1885 15.7013 29.0712 16.032 28.8365 16.032H25.7645C25.8072 14.7307 25.6792 13.7387 25.3805 13.056C25.0818 12.352 24.5592 12 23.8125 12C22.9592 12 22.2765 12.4373 21.7645 13.312C21.2738 14.1867 21.0285 15.3493 21.0285 16.8C21.0285 18.6773 21.4552 20.1493 22.3085 21.216C23.1832 22.2827 24.4312 22.816 26.0525 22.816C26.6285 22.816 27.1192 22.752 27.5245 22.624C27.9298 22.4747 28.4632 22.24 29.1245 21.92L29.1885 21.888C29.2312 21.888 29.2738 21.9307 29.3165 22.016C29.3805 22.1013 29.3912 22.1653 29.3485 22.208C28.5592 22.976 27.7592 23.5307 26.9485 23.872C26.1378 24.2133 25.2525 24.384 24.2925 24.384ZM19.8765 15.456L26.8845 15.328V16.032L19.9085 16.064L19.8765 15.456ZM40.128 24.192C40.0427 24.2347 39.936 24.256 39.808 24.256C39.3813 24.256 38.9867 23.9893 38.624 23.456C38.2613 22.9013 38.08 22.176 38.08 21.28V15.84C38.08 14.4747 37.9627 13.4827 37.728 12.864C37.5147 12.2453 37.1413 11.936 36.608 11.936C35.4773 11.936 34.8373 12.8107 34.688 14.56C34.624 15.2 34.432 15.6587 34.112 15.936C33.8133 16.2133 33.3867 16.352 32.832 16.352C32.2987 16.352 31.904 16.2453 31.648 16.032C31.4133 15.7973 31.296 15.4987 31.296 15.136C31.296 14.496 31.6693 13.888 32.416 13.312C33.1627 12.7147 34.0587 12.2347 35.104 11.872C36.1707 11.5093 37.1093 11.328 37.92 11.328C38.8587 11.328 39.616 11.6267 40.192 12.224C40.7893 12.8 41.088 13.6853 41.088 14.88V20.544C41.088 21.1627 41.1947 21.6427 41.408 21.984C41.6427 22.3253 41.9627 22.496 42.368 22.496C42.6667 22.496 42.976 22.4213 43.296 22.272H43.328C43.4133 22.272 43.4667 22.3253 43.488 22.432C43.5307 22.5173 43.5093 22.5813 43.424 22.624L40.128 24.192ZM33.984 24.224C33.0667 24.224 32.3733 24.0213 31.904 23.616C31.4347 23.2107 31.2 22.6453 31.2 21.92C31.2 21.344 31.3387 20.8853 31.616 20.544C31.8933 20.1813 32.2347 19.904 32.64 19.712C33.0667 19.4987 33.6533 19.264 34.4 19.008L35.2 18.72L38.4 17.536L38.528 18.016L36.704 18.848C36.64 18.8693 36.4267 18.9547 36.064 19.104C35.7013 19.232 35.3813 19.456 35.104 19.776C34.848 20.096 34.72 20.4693 34.72 20.896C34.72 21.408 34.88 21.8133 35.2 22.112C35.5413 22.3893 35.9253 22.528 36.352 22.528C36.6933 22.528 37.0453 22.4107 37.408 22.176L39.008 21.088L39.04 21.6L36.8 23.2C36.3093 23.5627 35.8507 23.8293 35.424 24C34.9973 24.1493 34.5173 24.224 33.984 24.224ZM50.7118 24.384C49.3038 24.384 48.1091 24.0853 47.1278 23.488C46.1678 22.8693 45.4424 22.08 44.9518 21.12C44.4824 20.1387 44.2478 19.1147 44.2478 18.048C44.2478 16.704 44.6211 15.5307 45.3678 14.528C46.1144 13.504 47.0638 12.7253 48.2158 12.192C49.3891 11.6373 50.5838 11.36 51.7998 11.36C52.8238 11.36 53.7411 11.5733 54.5518 12C55.3838 12.4267 55.7998 13.0133 55.7998 13.76C55.7998 14.1653 55.6398 14.5173 55.3198 14.816C55.0211 15.0933 54.5944 15.232 54.0398 15.232C53.5278 15.232 53.1224 15.104 52.8238 14.848C52.5251 14.5707 52.2798 14.1547 52.0878 13.6C51.8958 13.0027 51.7038 12.5973 51.5118 12.384C51.3411 12.1493 51.0211 12.032 50.5518 12.032C49.6344 12.032 48.8984 12.4907 48.3438 13.408C47.8104 14.304 47.5438 15.4987 47.5438 16.992C47.5438 18.7627 47.9384 20.1813 48.7278 21.248C49.5171 22.2933 50.7758 22.816 52.5038 22.816C53.0798 22.816 53.5704 22.752 53.9758 22.624C54.4024 22.496 54.9358 22.2827 55.5758 21.984H55.6078C55.6718 21.984 55.7251 22.016 55.7678 22.08C55.8318 22.144 55.8424 22.1973 55.7998 22.24C55.0104 22.9653 54.2211 23.5093 53.4318 23.872C52.6424 24.2133 51.7358 24.384 50.7118 24.384ZM57.3245 24C57.2818 24 57.2605 23.936 57.2605 23.808C57.2605 23.68 57.2818 23.616 57.3245 23.616C57.9858 23.616 58.4338 23.4667 58.6685 23.168C58.9245 22.848 59.0525 22.2613 59.0525 21.408V5.152C59.0525 4.40533 58.9778 3.872 58.8285 3.552C58.7005 3.232 58.4658 3.072 58.1245 3.072C57.8258 3.072 57.4205 3.18933 56.9085 3.424H56.8765C56.8125 3.424 56.7485 3.37067 56.6845 3.264C56.6418 3.136 56.6418 3.06133 56.6845 3.04L61.3565 0.831999L61.5165 0.799999C61.6232 0.799999 61.7298 0.853333 61.8365 0.959999C61.9645 1.04533 62.0285 1.13067 62.0285 1.216V21.408C62.0285 22.2613 62.1458 22.848 62.3805 23.168C62.6365 23.4667 63.0952 23.616 63.7565 23.616C63.8418 23.616 63.8845 23.68 63.8845 23.808C63.8845 23.936 63.8418 24 63.7565 24C63.2018 24 62.7538 23.9893 62.4125 23.968L60.5565 23.936L58.6365 23.968C58.3165 23.9893 57.8792 24 57.3245 24ZM65.9325 24C65.8898 24 65.8685 23.936 65.8685 23.808C65.8685 23.68 65.8898 23.616 65.9325 23.616C66.5938 23.616 67.0418 23.4667 67.2765 23.168C67.5325 22.848 67.6605 22.2613 67.6605 21.408V16.8C67.6605 15.648 67.4472 14.7947 67.0205 14.24C66.5938 13.6853 65.9325 13.408 65.0365 13.408C64.3752 13.408 63.7138 13.5787 63.0525 13.92C62.3912 14.24 61.8685 14.6667 61.4845 15.2L61.2925 14.816C62.9778 12.448 64.8445 11.264 66.8925 11.264C68.0445 11.264 68.9512 11.6373 69.6125 12.384C70.2952 13.1093 70.6365 14.0693 70.6365 15.264V21.408C70.6365 22.2613 70.7538 22.848 70.9885 23.168C71.2445 23.4667 71.7032 23.616 72.3645 23.616C72.4498 23.616 72.4925 23.68 72.4925 23.808C72.4925 23.936 72.4498 24 72.3645 24C71.8098 24 71.3618 23.9893 71.0205 23.968L69.1645 23.936L67.2445 23.968C66.9245 23.9893 66.4872 24 65.9325 24Z" fill="black"/>
</svg>
